# xmcd
#
# Track frame offsets:
#	150
#	13339
#	23248
#	39804
#	51623
#	65555
#	80142
#	91420
#	106601
#	118931
#	132173
#	148047
#	159568
#	175594
#	187424
#
# Disc length: 2629 seconds
#
# Revision: 4
# Processed by: cddbd v1.5.2PL0 Copyright (c) Steve Scherf et al.
# Submitted via: EZCDAudioConverter 2.1.7.1
#
DISCID=d50a430f
DTITLE=V/A - Dawning Of A New Era
DYEAR=2008
DGENRE=MOJO
TTITLE0=Symarip - Skinhead Moonstomp
TTITLE1=Desmond Dekker and The Aces - It Mek
TTITLE2=Toots and The Maytals - Monkey Man
TTITLE3=Dandy Livingstone and Rico - A Message To You Rudy
TTITLE4=Bob Marley and The Wailers - Concrete Jungle
TTITLE5=Neville Staple - Gangsters
TTITLE6=The Ruts - Babylon's Burning
TTITLE7=The Untouchables - I Spy (For The FBI)
TTITLE8=Belle Stars - Hiawatha
TTITLE9=Rico - Sea Cruise
TTITLE10=The Equators - Baby Come Back
TTITLE11=Laurel Aitken and The Loafers - Skinhead
TTITLE12=Judge Dread - Skin Lake
TTITLE13=Arthur Kay and The Originals - Play My Record
TTITLE14=JJ All Stars - Dambusters March
EXTD=
EXTT0=
EXTT1=
EXTT2=
EXTT3=
EXTT4=
EXTT5=
EXTT6=
EXTT7=
EXTT8=
EXTT9=
EXTT10=
EXTT11=
EXTT12=
EXTT13=
EXTT14=
PLAYORDER=
